<svg xmlns="http://www.w3.org/2000/svg" xmlns:xlink="http://www.w3.org/1999/xlink" width="567" zoomAndPan="magnify" viewBox="0 0 425.25 128.249994" height="171" preserveAspectRatio="xMidYMid meet" version="1.0"><defs><g/><clipPath id="961bb57edd"><path d="M 4.238281 6.375 L 118.9375 6.375 L 118.9375 121.074219 L 4.238281 121.074219 Z M 4.238281 6.375 " clip-rule="nonzero"/></clipPath><clipPath id="c063e83ec3"><path d="M 60 38.546875 L 66 38.546875 L 66 47 L 60 47 Z M 60 38.546875 " clip-rule="nonzero"/></clipPath><clipPath id="ee2e548ef6"><path d="M 67 47 L 73.960938 47 L 73.960938 54 L 67 54 Z M 67 47 " clip-rule="nonzero"/></clipPath><clipPath id="8aed67b2bd"><path d="M 35.1875 59 L 41 59 L 41 66 L 35.1875 66 Z M 35.1875 59 " clip-rule="nonzero"/></clipPath><clipPath id="3d2ba65883"><path d="M 41 60 L 53 60 L 53 71.355469 L 41 71.355469 Z M 41 60 " clip-rule="nonzero"/></clipPath></defs><g clip-path="url(#961bb57edd)"><path fill="#000000" d="M 50.835938 6.375 C 24.824219 6.664062 3.949219 28.003906 4.238281 54.03125 C 4.527344 80.046875 25.847656 100.917969 51.878906 100.632812 C 61.5 100.519531 70.847656 97.476562 78.675781 91.90625 L 105.601562 118.816406 C 108.675781 121.859375 113.652344 121.828125 116.695312 118.738281 C 119.703125 115.695312 119.703125 110.78125 116.695312 107.722656 L 89.769531 80.8125 C 104.847656 59.601562 99.886719 30.179688 78.675781 15.101562 C 70.558594 9.320312 60.8125 6.261719 50.835938 6.375 Z M 50.277344 14.539062 C 71.777344 13.929688 89.691406 30.867188 90.28125 52.367188 C 90.296875 52.75 90.296875 53.121094 90.296875 53.503906 C 90.3125 75.003906 72.882812 92.433594 51.382812 92.453125 C 29.882812 92.453125 12.449219 75.035156 12.433594 53.535156 C 12.433594 53.519531 12.433594 53.519531 12.433594 53.503906 C 12.402344 32.40625 29.195312 15.132812 50.277344 14.539062 " fill-opacity="1" fill-rule="nonzero"/></g><path fill="#000000" d="M 40.863281 24.625 C 42.992188 23.871094 45.332031 24.976562 46.097656 27.105469 C 46.851562 29.21875 45.761719 31.554688 43.664062 32.324219 C 34.765625 35.574219 28.828125 44.027344 28.828125 53.503906 C 28.828125 55.761719 27 57.601562 24.726562 57.601562 C 22.472656 57.601562 20.628906 55.761719 20.628906 53.503906 C 20.628906 40.585938 28.714844 29.042969 40.863281 24.625 " fill-opacity="1" fill-rule="nonzero"/><path fill="#000000" d="M 56.40625 44.136719 C 56.8125 43.445312 57.332031 43.078125 57.957031 43.035156 C 58.59375 43.019531 59.144531 43.34375 59.589844 44.003906 C 60.03125 44.683594 60.273438 45.492188 60.304688 46.414062 C 60.335938 47.359375 60.136719 48.148438 59.714844 48.757812 C 59.496094 49.113281 59.253906 49.382812 58.96875 49.578125 C 58.714844 49.757812 58.429688 49.851562 58.128906 49.859375 L 58.109375 49.859375 C 57.496094 49.875 56.957031 49.546875 56.507812 48.886719 C 56.046875 48.253906 55.804688 47.445312 55.789062 46.496094 C 55.742188 45.601562 55.953125 44.804688 56.40625 44.136719 " fill-opacity="1" fill-rule="nonzero"/><path fill="#000000" d="M 59.503906 49.941406 C 61.019531 48.378906 62.507812 47.714844 63.910156 47.964844 L 63.933594 47.972656 C 64.117188 48.035156 64.300781 48.113281 64.472656 48.207031 C 65.671875 48.847656 66.597656 50.164062 67.226562 52.117188 C 67.441406 52.796875 67.625 53.535156 67.777344 54.328125 C 67.953125 55.59375 67.933594 56.625 67.71875 57.40625 C 67.378906 58.375 66.789062 58.875 65.964844 58.898438 C 65.207031 58.917969 64.234375 58.511719 63.074219 57.6875 C 62.519531 57.246094 61.910156 57.027344 61.265625 57.042969 C 61.183594 57.046875 61.101562 57.050781 61.015625 57.0625 C 60.824219 57.074219 60.636719 57.082031 60.457031 57.085938 C 59.402344 57.113281 58.542969 57 57.90625 56.746094 C 57.261719 56.503906 56.839844 56.125 56.65625 55.625 C 56.40625 54.953125 56.578125 54.089844 57.1875 52.976562 C 57.976562 51.734375 58.753906 50.714844 59.503906 49.941406 " fill-opacity="1" fill-rule="nonzero"/><g clip-path="url(#c063e83ec3)"><path fill="#000000" d="M 64.882812 45.019531 C 64.410156 45.816406 63.808594 46.230469 63.09375 46.25 L 63.089844 46.25 C 62.390625 46.242188 61.777344 45.859375 61.273438 45.121094 C 60.726562 44.394531 60.445312 43.5 60.441406 42.460938 C 60.429688 41.398438 60.65625 40.484375 61.105469 39.75 C 61.582031 38.976562 62.179688 38.574219 62.878906 38.554688 L 62.902344 38.554688 C 63.582031 38.546875 64.207031 38.90625 64.753906 39.628906 L 64.761719 39.644531 C 65.234375 40.414062 65.480469 41.292969 65.511719 42.324219 C 65.535156 42.84375 65.480469 43.339844 65.355469 43.792969 C 65.261719 44.214844 65.101562 44.625 64.882812 45.019531 " fill-opacity="1" fill-rule="nonzero"/></g><g clip-path="url(#ee2e548ef6)"><path fill="#000000" d="M 67.765625 50.492188 C 67.988281 49.84375 68.410156 49.265625 69.042969 48.738281 C 69.097656 48.691406 69.152344 48.648438 69.210938 48.605469 C 69.242188 48.582031 69.273438 48.558594 69.304688 48.53125 C 70 47.980469 70.761719 47.691406 71.566406 47.671875 L 71.589844 47.671875 C 72.382812 47.59375 72.980469 47.800781 73.375 48.289062 C 73.757812 48.792969 73.808594 49.433594 73.53125 50.1875 C 73.238281 50.9375 72.71875 51.601562 71.980469 52.160156 C 71.554688 52.480469 71.128906 52.710938 70.722656 52.851562 C 70.382812 52.964844 70.042969 53.027344 69.726562 53.035156 C 69.679688 53.039062 69.632812 53.039062 69.589844 53.039062 C 69.234375 53.050781 68.910156 53.003906 68.625 52.902344 C 68.328125 52.792969 68.085938 52.617188 67.90625 52.378906 C 67.535156 51.890625 67.488281 51.253906 67.765625 50.492188 " fill-opacity="1" fill-rule="nonzero"/></g><path fill="#000000" d="M 70.902344 45.214844 C 70.617188 45.679688 70.300781 46.054688 69.953125 46.351562 C 69.640625 46.660156 69.277344 46.910156 68.875 47.105469 L 68.8125 47.132812 C 68.707031 47.179688 68.605469 47.226562 68.5 47.261719 C 68.234375 47.351562 67.980469 47.402344 67.738281 47.40625 C 67.363281 47.417969 67.015625 47.324219 66.703125 47.128906 C 66.125 46.734375 65.832031 46.078125 65.832031 45.183594 C 65.777344 44.28125 66.042969 43.378906 66.617188 42.515625 C 66.863281 42.140625 67.136719 41.804688 67.425781 41.515625 C 67.816406 41.128906 68.222656 40.835938 68.671875 40.621094 C 69.5 40.246094 70.226562 40.25 70.828125 40.632812 C 71.394531 41 71.714844 41.644531 71.777344 42.554688 L 71.777344 42.570312 C 71.738281 43.457031 71.445312 44.347656 70.902344 45.214844 " fill-opacity="1" fill-rule="nonzero"/><g clip-path="url(#8aed67b2bd)"><path fill="#000000" d="M 35.804688 60.226562 C 36.304688 59.832031 36.941406 59.765625 37.691406 60.023438 C 38.453125 60.304688 39.128906 60.808594 39.707031 61.527344 C 40.296875 62.265625 40.613281 63.015625 40.640625 63.757812 C 40.679688 64.171875 40.644531 64.53125 40.535156 64.859375 C 40.4375 65.15625 40.265625 65.398438 40.03125 65.585938 L 40.011719 65.597656 C 39.535156 65.976562 38.90625 66.039062 38.148438 65.78125 C 37.398438 65.546875 36.722656 65.046875 36.140625 64.296875 C 35.566406 63.605469 35.257812 62.839844 35.222656 62.039062 C 35.132812 61.238281 35.328125 60.632812 35.804688 60.226562 " fill-opacity="1" fill-rule="nonzero"/></g><g clip-path="url(#3d2ba65883)"><path fill="#000000" d="M 43.527344 60.609375 L 43.550781 60.601562 C 43.734375 60.542969 43.925781 60.5 44.121094 60.46875 C 45.464844 60.261719 46.996094 60.761719 48.671875 61.953125 C 49.246094 62.367188 49.839844 62.847656 50.433594 63.394531 C 51.332031 64.300781 51.9375 65.136719 52.230469 65.890625 C 52.539062 66.871094 52.367188 67.628906 51.722656 68.136719 C 51.125 68.605469 50.105469 68.863281 48.683594 68.898438 C 47.972656 68.875 47.355469 69.066406 46.847656 69.464844 C 46.785156 69.515625 46.722656 69.570312 46.65625 69.628906 C 46.511719 69.753906 46.367188 69.871094 46.226562 69.980469 C 45.398438 70.636719 44.640625 71.058594 43.980469 71.234375 C 43.316406 71.425781 42.753906 71.378906 42.308594 71.089844 C 41.703125 70.699219 41.324219 69.902344 41.144531 68.644531 C 41.03125 67.183594 41.042969 65.898438 41.183594 64.828125 C 41.460938 62.671875 42.25 61.25 43.527344 60.609375 " fill-opacity="1" fill-rule="nonzero"/></g><path fill="#000000" d="M 41.84375 59.722656 L 41.839844 59.726562 C 41.273438 60.140625 40.554688 60.203125 39.710938 59.910156 C 38.835938 59.65625 38.074219 59.105469 37.449219 58.277344 C 36.804688 57.433594 36.4375 56.570312 36.355469 55.710938 C 36.273438 54.804688 36.511719 54.125 37.0625 53.691406 L 37.078125 53.679688 C 37.617188 53.265625 38.335938 53.179688 39.207031 53.429688 L 39.222656 53.433594 C 40.0625 53.773438 40.785156 54.328125 41.429688 55.136719 C 41.757812 55.539062 42.011719 55.96875 42.183594 56.40625 C 42.359375 56.796875 42.480469 57.222656 42.539062 57.671875 C 42.640625 58.59375 42.40625 59.28125 41.84375 59.722656 " fill-opacity="1" fill-rule="nonzero"/><path fill="#000000" d="M 51.222656 61.1875 C 51.222656 61.191406 51.222656 61.191406 51.222656 61.191406 C 51.1875 61.21875 51.152344 61.25 51.117188 61.277344 C 50.835938 61.496094 50.550781 61.652344 50.257812 61.742188 C 49.957031 61.832031 49.660156 61.835938 49.371094 61.753906 C 48.78125 61.585938 48.359375 61.105469 48.128906 60.328125 C 47.917969 59.671875 47.910156 58.960938 48.097656 58.15625 C 48.113281 58.089844 48.132812 58.019531 48.152344 57.949219 C 48.164062 57.914062 48.175781 57.875 48.1875 57.835938 C 48.414062 56.976562 48.847656 56.292969 49.480469 55.792969 L 49.5 55.78125 C 50.089844 55.242188 50.691406 55.050781 51.300781 55.207031 C 51.910156 55.382812 52.332031 55.863281 52.5625 56.632812 C 52.777344 57.40625 52.757812 58.25 52.503906 59.140625 C 52.351562 59.652344 52.152344 60.09375 51.910156 60.449219 C 51.703125 60.742188 51.472656 60.992188 51.222656 61.1875 " fill-opacity="1" fill-rule="nonzero"/><path fill="#000000" d="M 46.988281 56.949219 L 46.953125 57.011719 C 46.894531 57.113281 46.84375 57.207031 46.78125 57.300781 C 46.621094 57.53125 46.445312 57.726562 46.257812 57.875 C 45.964844 58.105469 45.628906 58.238281 45.261719 58.269531 C 44.5625 58.300781 43.933594 57.949219 43.398438 57.234375 C 42.8125 56.542969 42.488281 55.664062 42.425781 54.625 C 42.402344 54.179688 42.417969 53.746094 42.476562 53.34375 C 42.558594 52.796875 42.710938 52.320312 42.9375 51.878906 C 43.375 51.085938 43.960938 50.652344 44.671875 50.597656 C 45.347656 50.550781 45.988281 50.878906 46.582031 51.566406 L 46.589844 51.574219 L 46.59375 51.582031 C 47.09375 52.316406 47.390625 53.203125 47.480469 54.222656 C 47.527344 54.769531 47.5 55.253906 47.398438 55.699219 C 47.332031 56.136719 47.191406 56.554688 46.988281 56.949219 " fill-opacity="1" fill-rule="nonzero"/><g fill="#000000" fill-opacity="1"><g transform="translate(101.222069, 75.974135)"><g><path d="M 16.125 1.75 C 13.789062 1.75 11.8125 1.628906 10.1875 1.390625 C 8.570312 1.160156 7.257812 0.722656 6.25 0.078125 C 5.238281 -0.566406 4.476562 -1.492188 3.96875 -2.703125 C 3.46875 -3.910156 3.160156 -5.476562 3.046875 -7.40625 C 3.003906 -8.382812 2.976562 -9.53125 2.96875 -10.84375 C 2.957031 -12.164062 2.960938 -13.554688 2.984375 -15.015625 C 3.003906 -16.472656 3.039062 -17.929688 3.09375 -19.390625 C 3.15625 -20.859375 3.21875 -22.234375 3.28125 -23.515625 C 3.34375 -24.804688 3.40625 -25.90625 3.46875 -26.8125 C 3.65625 -29.65625 4.328125 -31.910156 5.484375 -33.578125 C 6.640625 -35.242188 8.320312 -36.429688 10.53125 -37.140625 C 12.738281 -37.847656 15.515625 -38.203125 18.859375 -38.203125 C 20.773438 -38.203125 22.660156 -38.015625 24.515625 -37.640625 C 26.367188 -37.273438 28.046875 -36.695312 29.546875 -35.90625 C 31.054688 -35.125 32.257812 -34.097656 33.15625 -32.828125 C 34.0625 -31.554688 34.515625 -30.007812 34.515625 -28.1875 C 34.515625 -26.757812 34.234375 -25.550781 33.671875 -24.5625 C 33.109375 -23.582031 32.425781 -22.785156 31.625 -22.171875 C 30.832031 -21.554688 30.054688 -21.101562 29.296875 -20.8125 C 28.535156 -20.507812 27.890625 -20.269531 27.359375 -20.09375 C 26.828125 -19.925781 26.5625 -19.769531 26.5625 -19.625 C 26.5625 -19.5 26.941406 -19.375 27.703125 -19.25 C 28.472656 -19.125 29.421875 -18.890625 30.546875 -18.546875 C 32.066406 -18.097656 33.394531 -17.503906 34.53125 -16.765625 C 35.664062 -16.023438 36.539062 -15.101562 37.15625 -14 C 37.769531 -12.894531 38.078125 -11.585938 38.078125 -10.078125 C 38.078125 -8.597656 37.675781 -7.179688 36.875 -5.828125 C 36.082031 -4.484375 35.148438 -3.378906 34.078125 -2.515625 C 33.222656 -1.835938 32.132812 -1.234375 30.8125 -0.703125 C 29.488281 -0.171875 28.015625 0.273438 26.390625 0.640625 C 24.765625 1.015625 23.078125 1.289062 21.328125 1.46875 C 19.578125 1.65625 17.84375 1.75 16.125 1.75 Z M 15.90625 -3.84375 C 18.113281 -3.84375 20.128906 -3.984375 21.953125 -4.265625 C 23.773438 -4.554688 25.347656 -5 26.671875 -5.59375 C 27.992188 -6.1875 29.019531 -6.925781 29.75 -7.8125 C 30.488281 -8.707031 30.859375 -9.75 30.859375 -10.9375 C 30.859375 -12 30.445312 -12.867188 29.625 -13.546875 C 28.8125 -14.222656 27.738281 -14.765625 26.40625 -15.171875 C 25.070312 -15.578125 23.609375 -15.875 22.015625 -16.0625 C 20.421875 -16.257812 18.832031 -16.382812 17.25 -16.4375 C 15.675781 -16.488281 14.265625 -16.515625 13.015625 -16.515625 C 12.628906 -16.515625 12.28125 -16.425781 11.96875 -16.25 C 11.664062 -16.082031 11.398438 -15.785156 11.171875 -15.359375 C 10.953125 -14.941406 10.785156 -14.347656 10.671875 -13.578125 C 10.554688 -12.816406 10.5 -11.84375 10.5 -10.65625 C 10.5 -9.34375 10.550781 -8.25 10.65625 -7.375 C 10.757812 -6.507812 10.988281 -5.816406 11.34375 -5.296875 C 11.707031 -4.773438 12.25 -4.398438 12.96875 -4.171875 C 13.695312 -3.953125 14.675781 -3.84375 15.90625 -3.84375 Z M 11.765625 -21.5 C 13.421875 -21.5 14.90625 -21.523438 16.21875 -21.578125 C 17.539062 -21.640625 18.75 -21.742188 19.84375 -21.890625 C 20.945312 -22.035156 21.988281 -22.242188 22.96875 -22.515625 C 24.519531 -22.941406 25.742188 -23.570312 26.640625 -24.40625 C 27.546875 -25.25 28 -26.488281 28 -28.125 C 28 -29.050781 27.710938 -29.867188 27.140625 -30.578125 C 26.566406 -31.296875 25.804688 -31.890625 24.859375 -32.359375 C 23.921875 -32.835938 22.878906 -33.191406 21.734375 -33.421875 C 20.585938 -33.660156 19.441406 -33.78125 18.296875 -33.78125 C 17.234375 -33.78125 16.222656 -33.675781 15.265625 -33.46875 C 14.316406 -33.257812 13.492188 -32.9375 12.796875 -32.5 C 12.109375 -32.0625 11.617188 -31.535156 11.328125 -30.921875 C 11.179688 -30.597656 11.046875 -30.144531 10.921875 -29.5625 C 10.804688 -28.976562 10.703125 -28.347656 10.609375 -27.671875 C 10.515625 -26.992188 10.453125 -26.320312 10.421875 -25.65625 C 10.390625 -24.988281 10.375 -24.398438 10.375 -23.890625 C 10.375 -23.128906 10.472656 -22.539062 10.671875 -22.125 C 10.867188 -21.707031 11.234375 -21.5 11.765625 -21.5 Z M 11.765625 -21.5 "/></g></g></g><g fill="#000000" fill-opacity="1"><g transform="translate(141.326204, 75.974135)"><g><path d="M 18.546875 2.0625 C 15.492188 2.0625 12.882812 1.585938 10.71875 0.640625 C 8.550781 -0.296875 6.789062 -1.65625 5.4375 -3.4375 C 4.082031 -5.21875 3.085938 -7.363281 2.453125 -9.875 C 1.816406 -12.382812 1.5 -15.210938 1.5 -18.359375 C 1.5 -19.117188 1.523438 -19.882812 1.578125 -20.65625 C 1.628906 -21.4375 1.707031 -22.1875 1.8125 -22.90625 C 1.914062 -23.625 2.054688 -24.269531 2.234375 -24.84375 C 2.609375 -26.3125 3.15625 -27.367188 3.875 -28.015625 C 4.601562 -28.660156 5.472656 -28.984375 6.484375 -28.984375 C 7.441406 -28.984375 8.164062 -28.78125 8.65625 -28.375 C 9.144531 -27.96875 9.46875 -27.460938 9.625 -26.859375 C 9.78125 -26.253906 9.867188 -25.65625 9.890625 -25.0625 C 9.890625 -24.644531 9.890625 -24.160156 9.890625 -23.609375 C 9.890625 -23.054688 9.890625 -22.484375 9.890625 -21.890625 C 9.890625 -21.296875 9.894531 -20.71875 9.90625 -20.15625 C 9.914062 -19.59375 9.929688 -19.078125 9.953125 -18.609375 C 10.054688 -15.890625 10.382812 -13.492188 10.9375 -11.421875 C 11.488281 -9.359375 12.394531 -7.75 13.65625 -6.59375 C 14.925781 -5.445312 16.648438 -4.875 18.828125 -4.875 C 21.054688 -4.875 22.847656 -5.332031 24.203125 -6.25 C 25.566406 -7.175781 26.613281 -8.515625 27.34375 -10.265625 C 28.070312 -12.015625 28.617188 -14.117188 28.984375 -16.578125 C 29.085938 -17.210938 29.175781 -17.863281 29.25 -18.53125 C 29.320312 -19.195312 29.382812 -19.867188 29.4375 -20.546875 C 29.488281 -21.222656 29.550781 -21.90625 29.625 -22.59375 C 29.707031 -23.289062 29.789062 -23.988281 29.875 -24.6875 C 30.101562 -26.0625 30.515625 -27.128906 31.109375 -27.890625 C 31.703125 -28.660156 32.582031 -29.046875 33.75 -29.046875 C 34.769531 -29.046875 35.53125 -28.710938 36.03125 -28.046875 C 36.53125 -27.378906 36.875 -26.441406 37.0625 -25.234375 C 37.125 -24.441406 37.164062 -23.660156 37.1875 -22.890625 C 37.207031 -22.117188 37.210938 -21.335938 37.203125 -20.546875 C 37.191406 -19.765625 37.171875 -18.988281 37.140625 -18.21875 C 37.109375 -17.457031 37.0625 -16.695312 37 -15.9375 C 36.71875 -12.03125 35.867188 -8.734375 34.453125 -6.046875 C 33.035156 -3.367188 31.003906 -1.347656 28.359375 0.015625 C 25.722656 1.378906 22.453125 2.0625 18.546875 2.0625 Z M 18.546875 2.0625 "/></g></g></g><g fill="#000000" fill-opacity="1"><g transform="translate(181.907386, 75.974135)"><g><path d="M 14.890625 1.078125 C 13.578125 1.078125 12.207031 1.019531 10.78125 0.90625 C 9.363281 0.789062 8.03125 0.613281 6.78125 0.375 C 5.53125 0.144531 4.46875 -0.140625 3.59375 -0.484375 C 2.8125 -0.796875 2.171875 -1.148438 1.671875 -1.546875 C 1.171875 -1.953125 0.921875 -2.53125 0.921875 -3.28125 C 0.921875 -4.101562 1.164062 -4.734375 1.65625 -5.171875 C 2.144531 -5.609375 2.851562 -5.828125 3.78125 -5.828125 C 4.4375 -5.828125 5.257812 -5.710938 6.25 -5.484375 C 7.238281 -5.265625 8.359375 -5.03125 9.609375 -4.78125 C 10.859375 -4.539062 12.179688 -4.421875 13.578125 -4.421875 C 14.960938 -4.421875 16.28125 -4.539062 17.53125 -4.78125 C 18.78125 -5.03125 19.796875 -5.441406 20.578125 -6.015625 C 21.367188 -6.585938 21.765625 -7.367188 21.765625 -8.359375 C 21.765625 -9.273438 21.515625 -10.019531 21.015625 -10.59375 C 20.515625 -11.164062 19.648438 -11.660156 18.421875 -12.078125 C 17.191406 -12.503906 15.460938 -12.941406 13.234375 -13.390625 C 10.796875 -13.878906 8.734375 -14.515625 7.046875 -15.296875 C 5.359375 -16.085938 4.070312 -17.0625 3.1875 -18.21875 C 2.3125 -19.375 1.875 -20.753906 1.875 -22.359375 C 1.875 -23.765625 2.269531 -24.976562 3.0625 -26 C 3.863281 -27.03125 4.953125 -27.878906 6.328125 -28.546875 C 7.710938 -29.210938 9.289062 -29.710938 11.0625 -30.046875 C 12.832031 -30.378906 14.691406 -30.546875 16.640625 -30.546875 C 17.828125 -30.546875 19.039062 -30.472656 20.28125 -30.328125 C 21.519531 -30.191406 22.675781 -29.988281 23.75 -29.71875 C 24.820312 -29.457031 25.6875 -29.117188 26.34375 -28.703125 C 27 -28.296875 27.328125 -27.804688 27.328125 -27.234375 C 27.328125 -26.617188 27.175781 -26.117188 26.875 -25.734375 C 26.582031 -25.347656 26.195312 -25.070312 25.71875 -24.90625 C 25.238281 -24.738281 24.710938 -24.65625 24.140625 -24.65625 C 23.234375 -24.65625 22.191406 -24.757812 21.015625 -24.96875 C 19.835938 -25.1875 18.554688 -25.296875 17.171875 -25.296875 C 15.960938 -25.296875 14.835938 -25.171875 13.796875 -24.921875 C 12.765625 -24.679688 11.9375 -24.300781 11.3125 -23.78125 C 10.6875 -23.257812 10.375 -22.578125 10.375 -21.734375 C 10.375 -20.472656 11.054688 -19.503906 12.421875 -18.828125 C 13.785156 -18.148438 15.796875 -17.535156 18.453125 -16.984375 C 20.910156 -16.492188 22.953125 -15.875 24.578125 -15.125 C 26.203125 -14.375 27.425781 -13.421875 28.25 -12.265625 C 29.070312 -11.109375 29.484375 -9.671875 29.484375 -7.953125 C 29.484375 -6.316406 29.09375 -4.925781 28.3125 -3.78125 C 27.53125 -2.632812 26.457031 -1.707031 25.09375 -1 C 23.738281 -0.289062 22.179688 0.226562 20.421875 0.5625 C 18.660156 0.90625 16.816406 1.078125 14.890625 1.078125 Z M 14.890625 1.078125 "/></g></g></g><g fill="#000000" fill-opacity="1"><g transform="translate(212.947536, 75.974135)"><g><path d="M 19.25 1.90625 C 16.71875 1.90625 14.351562 1.5625 12.15625 0.875 C 9.96875 0.1875 8.039062 -0.832031 6.375 -2.1875 C 4.707031 -3.550781 3.398438 -5.234375 2.453125 -7.234375 C 1.515625 -9.242188 1.046875 -11.582031 1.046875 -14.25 C 1.046875 -17.050781 1.488281 -19.554688 2.375 -21.765625 C 3.269531 -23.984375 4.539062 -25.875 6.1875 -27.4375 C 7.832031 -29 9.816406 -30.1875 12.140625 -31 C 14.460938 -31.8125 17.03125 -32.21875 19.84375 -32.21875 C 22.03125 -32.21875 23.894531 -32.003906 25.4375 -31.578125 C 26.988281 -31.160156 28.175781 -30.625 29 -29.96875 C 29.832031 -29.3125 30.25 -28.644531 30.25 -27.96875 C 30.25 -27.539062 30.128906 -27.144531 29.890625 -26.78125 C 29.660156 -26.425781 29.351562 -26.144531 28.96875 -25.9375 C 28.59375 -25.738281 28.191406 -25.640625 27.765625 -25.640625 C 27.285156 -25.640625 26.765625 -25.738281 26.203125 -25.9375 C 25.640625 -26.144531 24.910156 -26.351562 24.015625 -26.5625 C 23.128906 -26.769531 21.953125 -26.875 20.484375 -26.875 C 18.785156 -26.875 17.238281 -26.597656 15.84375 -26.046875 C 14.445312 -25.503906 13.238281 -24.722656 12.21875 -23.703125 C 11.195312 -22.679688 10.410156 -21.472656 9.859375 -20.078125 C 9.304688 -18.691406 9.03125 -17.164062 9.03125 -15.5 C 9.03125 -13.25 9.488281 -11.351562 10.40625 -9.8125 C 11.332031 -8.269531 12.597656 -7.109375 14.203125 -6.328125 C 15.804688 -5.546875 17.613281 -5.15625 19.625 -5.15625 C 21.46875 -5.15625 23.035156 -5.335938 24.328125 -5.703125 C 25.628906 -6.078125 26.71875 -6.519531 27.59375 -7.03125 C 28.476562 -7.539062 29.207031 -7.984375 29.78125 -8.359375 C 30.351562 -8.742188 30.828125 -8.9375 31.203125 -8.9375 C 31.898438 -8.9375 32.441406 -8.78125 32.828125 -8.46875 C 33.210938 -8.164062 33.484375 -7.785156 33.640625 -7.328125 C 33.796875 -6.878906 33.875 -6.441406 33.875 -6.015625 C 33.875 -5.097656 33.539062 -4.171875 32.875 -3.234375 C 32.207031 -2.304688 31.25 -1.453125 30 -0.671875 C 28.75 0.0976562 27.21875 0.71875 25.40625 1.1875 C 23.59375 1.664062 21.539062 1.90625 19.25 1.90625 Z M 19.25 1.90625 "/></g></g></g><g fill="#000000" fill-opacity="1"><g transform="translate(249.744115, 75.974135)"><g><path d="M 14.859375 3.078125 C 13.140625 3.078125 11.507812 2.90625 9.96875 2.5625 C 8.4375 2.226562 7.078125 1.691406 5.890625 0.953125 C 4.703125 0.210938 3.765625 -0.75 3.078125 -1.9375 C 2.398438 -3.125 2.0625 -4.578125 2.0625 -6.296875 C 2.0625 -8.242188 2.539062 -9.84375 3.5 -11.09375 C 4.457031 -12.351562 5.753906 -13.335938 7.390625 -14.046875 C 9.035156 -14.753906 10.882812 -15.242188 12.9375 -15.515625 C 15 -15.796875 17.132812 -15.9375 19.34375 -15.9375 C 20.019531 -15.9375 20.707031 -15.914062 21.40625 -15.875 C 22.101562 -15.832031 22.765625 -15.789062 23.390625 -15.75 C 24.023438 -15.707031 24.539062 -15.6875 24.9375 -15.6875 C 25.488281 -15.6875 25.859375 -15.773438 26.046875 -15.953125 C 26.242188 -16.128906 26.34375 -16.441406 26.34375 -16.890625 C 26.34375 -17.722656 26.238281 -18.457031 26.03125 -19.09375 C 25.832031 -19.726562 25.539062 -20.285156 25.15625 -20.765625 C 24.78125 -21.253906 24.328125 -21.671875 23.796875 -22.015625 C 22.941406 -22.585938 21.914062 -22.992188 20.71875 -23.234375 C 19.519531 -23.484375 18.234375 -23.609375 16.859375 -23.609375 C 15.222656 -23.609375 13.773438 -23.4375 12.515625 -23.09375 C 11.253906 -22.757812 10.132812 -22.410156 9.15625 -22.046875 C 8.1875 -21.679688 7.296875 -21.5 6.484375 -21.5 C 5.378906 -21.5 4.53125 -21.679688 3.9375 -22.046875 C 3.34375 -22.410156 3.046875 -22.992188 3.046875 -23.796875 C 3.046875 -24.617188 3.394531 -25.378906 4.09375 -26.078125 C 4.800781 -26.785156 5.773438 -27.40625 7.015625 -27.9375 C 8.253906 -28.46875 9.695312 -28.878906 11.34375 -29.171875 C 12.988281 -29.472656 14.742188 -29.625 16.609375 -29.625 C 20.359375 -29.625 23.5 -29.148438 26.03125 -28.203125 C 28.570312 -27.253906 30.476562 -25.722656 31.75 -23.609375 C 33.019531 -21.503906 33.65625 -18.671875 33.65625 -15.109375 C 33.65625 -14.046875 33.601562 -13.125 33.5 -12.34375 C 33.394531 -11.5625 33.257812 -10.878906 33.09375 -10.296875 C 32.9375 -9.710938 32.804688 -9.207031 32.703125 -8.78125 C 32.597656 -8.351562 32.546875 -7.960938 32.546875 -7.609375 C 32.546875 -7.097656 32.707031 -6.613281 33.03125 -6.15625 C 33.363281 -5.695312 33.753906 -5.242188 34.203125 -4.796875 C 34.660156 -4.359375 35.0625 -3.890625 35.40625 -3.390625 C 35.75 -2.890625 35.921875 -2.332031 35.921875 -1.71875 C 35.921875 -0.800781 35.625 -0.144531 35.03125 0.25 C 34.4375 0.65625 33.773438 0.859375 33.046875 0.859375 C 32.390625 0.859375 31.84375 0.640625 31.40625 0.203125 C 30.976562 -0.234375 30.585938 -0.660156 30.234375 -1.078125 C 29.890625 -1.503906 29.460938 -1.71875 28.953125 -1.71875 C 28.648438 -1.71875 28.320312 -1.628906 27.96875 -1.453125 C 27.625 -1.285156 27.195312 -1.023438 26.6875 -0.671875 C 26.050781 -0.203125 25.238281 0.320312 24.25 0.90625 C 23.269531 1.488281 22.015625 1.992188 20.484375 2.421875 C 18.960938 2.859375 17.085938 3.078125 14.859375 3.078125 Z M 15.71875 -1.78125 C 17.03125 -1.78125 18.300781 -1.984375 19.53125 -2.390625 C 20.757812 -2.804688 21.863281 -3.378906 22.84375 -4.109375 C 23.820312 -4.847656 24.59375 -5.707031 25.15625 -6.6875 C 25.726562 -7.675781 26.015625 -8.742188 26.015625 -9.890625 C 26.015625 -10.609375 25.773438 -11.125 25.296875 -11.4375 C 24.828125 -11.757812 24.050781 -11.960938 22.96875 -12.046875 C 21.882812 -12.140625 20.453125 -12.1875 18.671875 -12.1875 C 16.910156 -12.1875 15.273438 -12.007812 13.765625 -11.65625 C 12.265625 -11.3125 11.054688 -10.726562 10.140625 -9.90625 C 9.234375 -9.09375 8.78125 -7.984375 8.78125 -6.578125 C 8.78125 -5.503906 9.054688 -4.613281 9.609375 -3.90625 C 10.160156 -3.207031 10.953125 -2.675781 11.984375 -2.3125 C 13.023438 -1.957031 14.269531 -1.78125 15.71875 -1.78125 Z M 15.71875 -1.78125 "/></g></g></g><g fill="#000000" fill-opacity="1"><g transform="translate(288.067263, 75.974135)"><g><path d="M 9.359375 0.671875 C 8.628906 0.671875 7.960938 0.488281 7.359375 0.125 C 6.753906 -0.226562 6.210938 -0.804688 5.734375 -1.609375 C 5.265625 -2.421875 4.847656 -3.484375 4.484375 -4.796875 C 4.335938 -5.460938 4.1875 -6.304688 4.03125 -7.328125 C 3.882812 -8.359375 3.742188 -9.484375 3.609375 -10.703125 C 3.472656 -11.921875 3.34375 -13.179688 3.21875 -14.484375 C 3.101562 -15.796875 3.003906 -17.078125 2.921875 -18.328125 C 2.835938 -19.578125 2.769531 -20.75 2.71875 -21.84375 C 2.664062 -22.9375 2.640625 -23.863281 2.640625 -24.625 C 2.640625 -28.0625 3.085938 -30.765625 3.984375 -32.734375 C 4.890625 -34.703125 6.367188 -36.09375 8.421875 -36.90625 C 10.484375 -37.726562 13.234375 -38.140625 16.671875 -38.140625 C 19.335938 -38.140625 21.894531 -37.890625 24.34375 -37.390625 C 26.800781 -36.890625 28.984375 -36.117188 30.890625 -35.078125 C 32.796875 -34.046875 34.296875 -32.710938 35.390625 -31.078125 C 36.484375 -29.441406 37.03125 -27.492188 37.03125 -25.234375 C 37.03125 -23.492188 36.648438 -21.96875 35.890625 -20.65625 C 35.140625 -19.351562 34.082031 -18.257812 32.71875 -17.375 C 31.351562 -16.5 29.734375 -15.8125 27.859375 -15.3125 C 25.992188 -14.8125 23.960938 -14.476562 21.765625 -14.3125 C 20.316406 -14.226562 18.910156 -14.210938 17.546875 -14.265625 C 16.179688 -14.316406 14.847656 -14.34375 13.546875 -14.34375 C 12.972656 -14.34375 12.609375 -14.125 12.453125 -13.6875 C 12.296875 -13.257812 12.21875 -12.660156 12.21875 -11.890625 C 12.21875 -11.472656 12.226562 -10.96875 12.25 -10.375 C 12.269531 -9.78125 12.300781 -9.140625 12.34375 -8.453125 C 12.382812 -7.773438 12.421875 -7.101562 12.453125 -6.4375 C 12.484375 -5.769531 12.507812 -5.148438 12.53125 -4.578125 C 12.550781 -4.003906 12.5625 -3.53125 12.5625 -3.15625 C 12.5625 -1.875 12.300781 -0.914062 11.78125 -0.28125 C 11.257812 0.351562 10.453125 0.671875 9.359375 0.671875 Z M 13.9375 -18.859375 C 15.414062 -18.859375 16.894531 -18.921875 18.375 -19.046875 C 19.863281 -19.179688 21.273438 -19.398438 22.609375 -19.703125 C 23.953125 -20.015625 25.140625 -20.429688 26.171875 -20.953125 C 27.210938 -21.472656 28.03125 -22.117188 28.625 -22.890625 C 29.21875 -23.660156 29.515625 -24.578125 29.515625 -25.640625 C 29.515625 -26.828125 29.226562 -27.835938 28.65625 -28.671875 C 28.082031 -29.515625 27.335938 -30.21875 26.421875 -30.78125 C 25.515625 -31.34375 24.535156 -31.78125 23.484375 -32.09375 C 22.441406 -32.414062 21.429688 -32.640625 20.453125 -32.765625 C 19.472656 -32.890625 18.65625 -32.953125 18 -32.953125 C 16.707031 -32.953125 15.613281 -32.851562 14.71875 -32.65625 C 13.832031 -32.457031 13.125 -32.140625 12.59375 -31.703125 C 12.0625 -31.265625 11.679688 -30.722656 11.453125 -30.078125 C 11.222656 -29.429688 11.109375 -28.660156 11.109375 -27.765625 C 11.109375 -26.492188 11.132812 -25.367188 11.1875 -24.390625 C 11.238281 -23.421875 11.328125 -22.582031 11.453125 -21.875 C 11.578125 -21.164062 11.742188 -20.59375 11.953125 -20.15625 C 12.171875 -19.71875 12.4375 -19.390625 12.75 -19.171875 C 13.070312 -18.960938 13.46875 -18.859375 13.9375 -18.859375 Z M 13.9375 -18.859375 "/></g></g></g><g fill="#000000" fill-opacity="1"><g transform="translate(326.644829, 75.974135)"><g><path d="M 19.3125 2.1875 C 15.75 2.1875 12.660156 1.644531 10.046875 0.5625 C 7.441406 -0.507812 5.425781 -2.175781 4 -4.4375 C 2.582031 -6.695312 1.875 -9.578125 1.875 -13.078125 C 1.875 -15.984375 2.351562 -18.519531 3.3125 -20.6875 C 4.28125 -22.863281 5.613281 -24.679688 7.3125 -26.140625 C 9.007812 -27.609375 10.972656 -28.707031 13.203125 -29.4375 C 15.429688 -30.175781 17.804688 -30.546875 20.328125 -30.546875 C 22.046875 -30.546875 23.671875 -30.363281 25.203125 -30 C 26.742188 -29.632812 28.113281 -29.078125 29.3125 -28.328125 C 30.507812 -27.578125 31.445312 -26.617188 32.125 -25.453125 C 32.8125 -24.285156 33.15625 -22.894531 33.15625 -21.28125 C 33.15625 -19.5625 32.789062 -18.164062 32.0625 -17.09375 C 31.34375 -16.03125 30.359375 -15.191406 29.109375 -14.578125 C 27.859375 -13.972656 26.441406 -13.53125 24.859375 -13.25 C 23.273438 -12.96875 21.628906 -12.75 19.921875 -12.59375 C 19.046875 -12.445312 18.015625 -12.328125 16.828125 -12.234375 C 15.640625 -12.140625 14.488281 -12.0625 13.375 -12 C 12.257812 -11.945312 11.394531 -11.921875 10.78125 -11.921875 C 10.144531 -11.921875 9.707031 -11.835938 9.46875 -11.671875 C 9.238281 -11.503906 9.125 -11.195312 9.125 -10.75 C 9.125 -10.21875 9.269531 -9.597656 9.5625 -8.890625 C 9.863281 -8.179688 10.289062 -7.488281 10.84375 -6.8125 C 11.863281 -5.5625 13.046875 -4.726562 14.390625 -4.3125 C 15.742188 -3.894531 17.40625 -3.6875 19.375 -3.6875 C 21.09375 -3.6875 22.660156 -3.894531 24.078125 -4.3125 C 25.503906 -4.726562 26.785156 -5.140625 27.921875 -5.546875 C 29.054688 -5.960938 30.078125 -6.171875 30.984375 -6.171875 C 31.804688 -6.171875 32.457031 -6.015625 32.9375 -5.703125 C 33.414062 -5.398438 33.65625 -4.800781 33.65625 -3.90625 C 33.65625 -3.101562 33.289062 -2.332031 32.5625 -1.59375 C 31.832031 -0.851562 30.816406 -0.203125 29.515625 0.359375 C 28.222656 0.921875 26.707031 1.363281 24.96875 1.6875 C 23.226562 2.019531 21.34375 2.1875 19.3125 2.1875 Z M 16.796875 -15.5 C 18.515625 -15.5 20.113281 -15.660156 21.59375 -15.984375 C 23.082031 -16.316406 24.285156 -16.878906 25.203125 -17.671875 C 26.128906 -18.460938 26.59375 -19.5625 26.59375 -20.96875 C 26.59375 -22.625 25.988281 -23.867188 24.78125 -24.703125 C 23.570312 -25.535156 21.875 -25.953125 19.6875 -25.953125 C 18.394531 -25.953125 17.132812 -25.722656 15.90625 -25.265625 C 14.675781 -24.816406 13.582031 -24.1875 12.625 -23.375 C 11.675781 -22.570312 10.914062 -21.660156 10.34375 -20.640625 C 9.769531 -19.628906 9.484375 -18.539062 9.484375 -17.375 C 9.484375 -16.78125 9.71875 -16.347656 10.1875 -16.078125 C 10.664062 -15.816406 11.441406 -15.65625 12.515625 -15.59375 C 13.585938 -15.53125 15.015625 -15.5 16.796875 -15.5 Z M 16.796875 -15.5 "/></g></g></g><g fill="#000000" fill-opacity="1"><g transform="translate(363.091563, 75.974135)"><g><path d="M 19.84375 0.671875 C 18.707031 0.671875 17.5625 0.5 16.40625 0.15625 C 15.25 -0.175781 14.257812 -0.816406 13.4375 -1.765625 C 12.625 -2.710938 12.144531 -4.054688 12 -5.796875 C 11.925781 -6.410156 11.859375 -7.109375 11.796875 -7.890625 C 11.734375 -8.671875 11.675781 -9.507812 11.625 -10.40625 C 11.570312 -11.3125 11.53125 -12.25 11.5 -13.21875 C 11.46875 -14.1875 11.4375 -15.171875 11.40625 -16.171875 C 11.375 -17.179688 11.359375 -18.1875 11.359375 -19.1875 C 11.335938 -20.132812 11.160156 -20.753906 10.828125 -21.046875 C 10.503906 -21.347656 10.003906 -21.53125 9.328125 -21.59375 C 8.921875 -21.644531 8.40625 -21.679688 7.78125 -21.703125 C 7.15625 -21.722656 6.515625 -21.753906 5.859375 -21.796875 C 5.203125 -21.835938 4.617188 -21.878906 4.109375 -21.921875 C 3.273438 -22.003906 2.644531 -22.269531 2.21875 -22.71875 C 1.800781 -23.175781 1.59375 -23.832031 1.59375 -24.6875 C 1.59375 -25.257812 1.710938 -25.695312 1.953125 -26 C 2.203125 -26.3125 2.550781 -26.550781 3 -26.71875 C 3.457031 -26.894531 3.972656 -27.015625 4.546875 -27.078125 C 5.671875 -27.179688 6.597656 -27.273438 7.328125 -27.359375 C 8.066406 -27.441406 8.753906 -27.515625 9.390625 -27.578125 C 10.066406 -27.660156 10.546875 -27.835938 10.828125 -28.109375 C 11.117188 -28.390625 11.304688 -28.90625 11.390625 -29.65625 C 11.429688 -30.09375 11.46875 -30.609375 11.5 -31.203125 C 11.53125 -31.796875 11.570312 -32.382812 11.625 -32.96875 C 11.675781 -33.550781 11.734375 -34.054688 11.796875 -34.484375 C 12.035156 -35.523438 12.363281 -36.285156 12.78125 -36.765625 C 13.207031 -37.253906 13.890625 -37.5 14.828125 -37.5 C 15.585938 -37.5 16.1875 -37.378906 16.625 -37.140625 C 17.0625 -36.898438 17.382812 -36.523438 17.59375 -36.015625 C 17.800781 -35.503906 17.96875 -34.847656 18.09375 -34.046875 C 18.144531 -33.378906 18.1875 -32.789062 18.21875 -32.28125 C 18.25 -31.78125 18.273438 -31.320312 18.296875 -30.90625 C 18.316406 -30.488281 18.34375 -30.109375 18.375 -29.765625 C 18.40625 -29.429688 18.441406 -29.097656 18.484375 -28.765625 C 18.546875 -28.140625 18.742188 -27.695312 19.078125 -27.4375 C 19.421875 -27.175781 19.921875 -27.007812 20.578125 -26.9375 C 21.148438 -26.875 21.78125 -26.804688 22.46875 -26.734375 C 23.164062 -26.660156 23.835938 -26.597656 24.484375 -26.546875 C 25.128906 -26.492188 25.664062 -26.425781 26.09375 -26.34375 C 26.957031 -26.238281 27.695312 -26.003906 28.3125 -25.640625 C 28.925781 -25.273438 29.234375 -24.679688 29.234375 -23.859375 C 29.234375 -23.097656 28.988281 -22.5 28.5 -22.0625 C 28.007812 -21.625 27.34375 -21.375 26.5 -21.3125 C 25.207031 -21.289062 24.007812 -21.285156 22.90625 -21.296875 C 21.800781 -21.304688 20.941406 -21.300781 20.328125 -21.28125 C 19.835938 -21.238281 19.457031 -21.09375 19.1875 -20.84375 C 18.925781 -20.601562 18.773438 -19.984375 18.734375 -18.984375 C 18.734375 -18.179688 18.738281 -17.351562 18.75 -16.5 C 18.757812 -15.65625 18.773438 -14.804688 18.796875 -13.953125 C 18.816406 -13.109375 18.847656 -12.28125 18.890625 -11.46875 C 18.929688 -10.65625 18.984375 -9.882812 19.046875 -9.15625 C 19.117188 -8.4375 19.195312 -7.78125 19.28125 -7.1875 C 19.445312 -5.9375 19.757812 -5.097656 20.21875 -4.671875 C 20.675781 -4.253906 21.285156 -4.046875 22.046875 -4.046875 C 22.953125 -4.046875 23.664062 -4.226562 24.1875 -4.59375 C 24.707031 -4.96875 25.15625 -5.34375 25.53125 -5.71875 C 25.90625 -6.101562 26.320312 -6.296875 26.78125 -6.296875 C 27.3125 -6.296875 27.695312 -6.148438 27.9375 -5.859375 C 28.1875 -5.578125 28.3125 -5.160156 28.3125 -4.609375 C 28.3125 -3.910156 28.0625 -3.25 27.5625 -2.625 C 27.0625 -2 26.40625 -1.4375 25.59375 -0.9375 C 24.78125 -0.4375 23.875 -0.046875 22.875 0.234375 C 21.875 0.523438 20.863281 0.671875 19.84375 0.671875 Z M 19.84375 0.671875 "/></g></g></g></svg>